<svg width="29" height="22" viewBox="0 0 29 22" fill="none" xmlns="http://www.w3.org/2000/svg">
<path d="M15.6494 0.101982C14.6056 -0.20225 13.6028 0.214341 12.6408 0.821165C11.6748 1.43062 10.5022 2.39702 9.0352 3.60613L7.73497 4.67775C7.48563 4.88324 7.38481 4.966 7.28489 5.04046C6.4388 5.67095 5.42413 6.0352 4.37022 6.08678C4.24575 6.09287 4.11532 6.09313 3.79222 6.09313L3.74024 6.09312C3.46173 6.09304 3.24713 6.09298 3.05526 6.11445C1.45947 6.29301 0.199901 7.55258 0.0213388 9.14837C-0.000129931 9.34024 -6.93575e-05 9.55484 9.32062e-06 9.83335V11.3708C-6.93575e-05 11.6493 -0.000129931 11.8639 0.0213388 12.0557C0.199901 13.6515 1.45947 14.9111 3.05526 15.0897C3.24713 15.1111 3.46173 15.1111 3.74026 15.111L3.79222 15.111C4.11532 15.111 4.24575 15.1112 4.37022 15.1173C5.42413 15.1689 6.4388 15.5332 7.28489 16.1637C7.38481 16.2381 7.48563 16.3209 7.73496 16.5264L9.03518 17.598C10.5022 18.8071 11.6747 19.7735 12.6408 20.3829C13.6028 20.9898 14.6056 21.4064 15.6494 21.1021C15.9958 21.0012 16.3242 20.8463 16.6224 20.6432C17.5211 20.0312 17.8374 18.9923 17.9809 17.8641C18.1251 16.731 18.125 15.2115 18.125 13.3104V7.89371C18.125 5.99263 18.1251 4.47316 17.9809 3.34003C17.8374 2.21178 17.5211 1.17294 16.6224 0.56095C16.3242 0.357839 15.9958 0.202953 15.6494 0.101982Z" fill="#202020"/>
<path d="M24.1004 1.18914C23.7343 0.823027 23.1407 0.823027 22.7746 1.18914C22.4085 1.55526 22.4085 2.14885 22.7746 2.51497L23.6496 3.38997C24.4105 4.15085 24.7466 4.4883 24.9995 4.79088C27.8107 8.15501 27.8107 13.0491 24.9995 16.4132C24.7466 16.7158 24.4105 17.0532 23.6496 17.8141L22.7746 18.6891C22.4085 19.0553 22.4085 19.6489 22.7746 20.015C23.1407 20.3811 23.7343 20.3811 24.1004 20.015L25.02 19.0954C25.7244 18.391 26.1247 17.9908 26.4382 17.6155C29.8311 13.5554 29.8311 7.64872 26.4382 3.58857C26.1247 3.21334 25.7244 2.81307 25.0199 2.10866L24.1004 1.18914Z" fill="#202020"/>
<path d="M21.6004 4.93914C21.2343 4.57303 20.6407 4.57303 20.2746 4.93914C19.9085 5.30526 19.9085 5.89885 20.2746 6.26497L20.7746 6.76497C20.8517 6.84209 20.8833 6.87367 20.9086 6.89973C22.912 8.9614 22.912 12.2427 20.9086 14.3044C20.8833 14.3304 20.8517 14.362 20.7746 14.4391L20.2746 14.9391C19.9085 15.3053 19.9085 15.8989 20.2746 16.265C20.6407 16.6311 21.2343 16.6311 21.6004 16.265L22.1071 15.7583C22.1755 15.6899 22.2174 15.648 22.2533 15.6111C24.9638 12.8218 24.9638 8.38234 22.2533 5.59303C22.2174 5.55608 22.1756 5.51433 22.1071 5.44579L21.6004 4.93914Z" fill="#202020"/>
</svg>
